<svg width="68" height="16" viewBox="0 0 68 16" fill="none" xmlns="http://www.w3.org/2000/svg">
<path d="M3.12458 13.7612C2.14936 13.2171 1.38462 12.4681 0.830769 11.5132C0.276923 10.5583 0 9.4834 0 8.28856C0 7.09371 0.276923 6.01839 0.830769 5.06349C1.38462 4.10858 2.14936 3.35909 3.12458 2.81545C4.10023 2.27182 5.19552 2 6.41132 2C7.47958 2 8.43796 2.19612 9.28601 2.58791C10.1336 2.9797 10.8226 3.51846 11.3521 4.20376C11.8811 4.8895 12.2289 5.65803 12.396 6.51067H9.69009C9.54343 5.92277 9.17789 5.43314 8.5948 5.04135C8.01127 4.64956 7.30279 4.45389 6.46981 4.45389C5.75424 4.45389 5.10691 4.61769 4.52869 4.94573C3.95003 5.27421 3.49676 5.72975 3.16844 6.31234C2.84012 6.89494 2.67619 7.55367 2.67619 8.28856C2.67619 9.0137 2.84012 9.66934 3.16844 10.2572C3.49676 10.8447 3.95047 11.3025 4.52869 11.6309C5.10691 11.959 5.75424 12.1232 6.46981 12.1232C7.01834 12.1232 7.53585 12.0156 8.02102 11.8001C8.50663 11.5849 8.90806 11.3056 9.22708 10.9625C9.54565 10.6198 9.73927 10.267 9.80795 9.90441H12.5138C12.3862 10.7177 12.0477 11.4813 11.4992 12.1967C10.9498 12.9117 10.232 13.4867 9.34493 13.9228C8.45745 14.3584 7.47958 14.5767 6.41132 14.5767C5.19552 14.5767 4.10023 14.3049 3.12458 13.7612Z" fill="#064699"/>
<path d="M20.8957 11.9617H16.2491L15.4108 14.2827H12.6465L17.293 2.30859H20.072L24.7186 14.2827H21.7335L20.8957 11.9617ZM20.072 9.63971L18.5718 5.46726L17.0719 9.63971H20.072Z" fill="#064699"/>
<path d="M33.1445 14.2827L30.821 10.507H28.6889V14.2827H26.0127V2.30859H30.836C31.8361 2.30859 32.6983 2.47771 33.424 2.81549C34.1498 3.15371 34.7036 3.63138 35.086 4.24806C35.468 4.86519 35.6594 5.58546 35.6594 6.408C35.6594 7.23054 35.4702 7.94815 35.0936 8.55996C34.7156 9.17266 34.1746 9.64502 33.4683 9.97793L36.2473 14.2827H33.1449H33.1445ZM28.6889 8.14161H30.7182C31.4337 8.14161 31.9902 7.99242 32.3872 7.69316C32.7842 7.39433 32.9832 6.9658 32.9832 6.408C32.9832 5.8502 32.7847 5.42122 32.3872 5.1224C31.9902 4.82357 31.4342 4.67394 30.7182 4.67394H28.6889V8.14161Z" fill="#064699"/>
<path d="M40.2465 2.30859V14.2827H37.5703V2.30859H40.2465Z" fill="#064699"/>
<path d="M42.4521 2.3086H44.6875L50.6721 9.50779V2.16162H53.3487V14.1362H51.1134L45.1283 6.93658V14.2827H42.4521V2.3086Z" fill="#064699"/>
<path d="M64.2232 2.52907C65.0615 2.88146 65.7625 3.36179 66.3261 3.96873C66.8892 4.57612 67.2893 5.25699 67.5246 6.01091H64.5834C64.3185 5.5505 63.914 5.17598 63.3703 4.88689C62.8258 4.59825 62.201 4.45349 61.4956 4.45349C60.7801 4.45349 60.1327 4.61729 59.5545 4.94533C58.9759 5.27381 58.5226 5.72935 58.1943 6.31195C57.866 6.89454 57.702 7.55328 57.702 8.28816C57.702 9.02304 57.866 9.68621 58.1943 10.279C58.5226 10.8718 58.9763 11.3344 59.5545 11.6673C60.1327 12.0006 60.7801 12.1671 61.4956 12.1671C62.0938 12.1671 62.6374 12.0595 63.1279 11.8439C63.618 11.6288 64.0176 11.3419 64.3265 10.9846C64.6353 10.6274 64.8387 10.2475 64.9366 9.84602H61.275V7.58338H67.7891V8.28905C67.7891 9.48389 67.5122 10.5588 66.9583 11.5137C66.4045 12.4686 65.6446 13.2181 64.6791 13.7617C63.7132 14.3053 62.6326 14.5772 61.4367 14.5772C60.2209 14.5772 59.1256 14.3053 58.15 13.7617C57.1748 13.2176 56.41 12.4686 55.8562 11.5137C55.3023 10.5588 55.0254 9.48389 55.0254 8.28905C55.0254 7.0942 55.3023 6.01888 55.8562 5.06397C56.41 4.10907 57.1748 3.35958 58.15 2.81594C59.1256 2.27231 60.2209 2.00049 61.4367 2.00049C62.4562 2.00049 63.3849 2.17624 64.2232 2.52907Z" fill="#064699"/>
</svg>
