<svg width="42" height="42" viewBox="0 0 42 42" fill="none" xmlns="http://www.w3.org/2000/svg">
<circle cx="21" cy="21" r="21" fill="#FCAF57"/>
<path d="M21.0313 31C16.8839 31 14.6961 28.2365 13.6521 26.3551C13.3051 25.7297 13.7909 25 14.5061 25H27.7676C28.4027 25 28.8503 25.5799 28.5734 26.1515C27.6634 28.0297 25.331 31 21.0313 31Z" fill="white"/>
<path d="M25 18C25.2456 17.5556 26.1558 16 28.5137 16C30.8716 16 31.8772 17.5556 32 18" stroke="white" stroke-width="3" stroke-linecap="round"/>
<path d="M10 18C10.2456 17.5556 11.1558 16 13.5137 16C15.8716 16 16.8772 17.5556 17 18" stroke="white" stroke-width="3" stroke-linecap="round"/>
</svg>
