<svg width="24" height="24" viewBox="0 0 24 24" fill="none" xmlns="http://www.w3.org/2000/svg">
<circle cx="12" cy="12" r="12" fill="#FCAF57"/>
<path d="M12.0179 17.7142C9.64796 17.7142 8.39778 16.135 7.80122 15.06C7.60293 14.7026 7.88053 14.2856 8.28921 14.2856H15.8672C16.2301 14.2856 16.4859 14.617 16.3277 14.9437C15.8077 16.0169 14.4749 17.7142 12.0179 17.7142Z" fill="#1D1D1D"/>
<path d="M14.2858 10.2856C14.4261 10.0317 14.9462 9.14279 16.2936 9.14279C17.641 9.14279 18.2156 10.0317 18.2858 10.2856" stroke="#1D1D1D" stroke-width="1.71429" stroke-linecap="round"/>
<path d="M5.71423 10.2856C5.85458 10.0317 6.37469 9.14279 7.72206 9.14279C9.06943 9.14279 9.64406 10.0317 9.71423 10.2856" stroke="#1D1D1D" stroke-width="1.71429" stroke-linecap="round"/>
</svg>
