<svg width="42" height="42" viewBox="0 0 42 42" fill="none" xmlns="http://www.w3.org/2000/svg">
<circle cx="21" cy="21" r="21" fill="#064699"/>
<path d="M25 16C25.2456 16.4444 26.1558 18 28.5137 18C30.8716 18 31.8772 16.4444 32 16" stroke="white" stroke-width="3" stroke-linecap="round"/>
<path d="M10 16C10.2456 16.4444 11.1558 18 13.5137 18C15.8716 18 16.8772 16.4444 17 16" stroke="white" stroke-width="3" stroke-linecap="round"/>
<path d="M14 30C14.4912 29.3333 16.3116 27 21.0274 27C25.7432 27 27.7544 29.3333 28 30" stroke="white" stroke-width="3" stroke-linecap="round"/>
<path d="M35 29C34.2044 29 33.4413 28.6207 32.8787 27.9456C32.3161 27.2705 32 26.3548 32 25.4C32 23.8241 33.0163 22.5636 33.9099 21.4085L35 20L36.0901 21.4085C36.9837 22.5641 38 23.8245 38 25.4C38 26.3548 37.6839 27.2705 37.1213 27.9456C36.5587 28.6207 35.7956 29 35 29Z" fill="white"/>
</svg>
