<svg width="24" height="24" viewBox="0 0 24 24" fill="none" xmlns="http://www.w3.org/2000/svg">
<circle cx="12" cy="12" r="12" fill="#3A81DF"/>
<path d="M14.2858 9.14307C14.4261 9.39703 14.9462 10.2859 16.2936 10.2859C17.641 10.2859 18.2156 9.39703 18.2858 9.14307" stroke="#1D1D1D" stroke-width="1.71429" stroke-linecap="round"/>
<path d="M5.71423 9.14307C5.85458 9.39703 6.37469 10.2859 7.72206 10.2859C9.06943 10.2859 9.64406 9.39703 9.71423 9.14307" stroke="#1D1D1D" stroke-width="1.71429" stroke-linecap="round"/>
<path d="M8 17.1431C8.2807 16.7621 9.32092 15.4288 12.0157 15.4288C14.7104 15.4288 15.8596 16.7621 16 17.1431" stroke="#1D1D1D" stroke-width="1.71429" stroke-linecap="round"/>
<path d="M20.0001 16.5716C19.5454 16.5716 19.1094 16.3548 18.7879 15.969C18.4664 15.5833 18.2858 15.06 18.2858 14.5144C18.2858 13.6139 18.8665 12.8937 19.3771 12.2336L20.0001 11.4287L20.623 12.2336C21.1336 12.8939 21.7143 13.6142 21.7143 14.5144C21.7143 15.06 21.5337 15.5833 21.2122 15.969C20.8907 16.3548 20.4547 16.5716 20.0001 16.5716Z" fill="#1D1D1D"/>
</svg>
