<svg width="104" height="24" viewBox="0 0 104 24" fill="none" xmlns="http://www.w3.org/2000/svg">
<path d="M6.33705 20.2262C4.88967 19.4091 3.75497 18.2829 2.93306 16.8474C2.11115 15.412 1.7002 13.7965 1.7002 12C1.7002 10.2036 2.11115 8.58816 2.93306 7.15255C3.75497 5.71706 4.88967 4.59061 6.33705 3.77343C7.78503 2.95662 9.41016 2.54785 11.2146 2.54785C12.8 2.54785 14.2223 2.84257 15.4809 3.43128C16.7389 4.02047 17.7611 4.83012 18.5471 5.86036C19.3324 6.89132 19.8487 8.04677 20.0965 9.32793H16.0807C15.863 8.4445 15.3204 7.7085 14.4554 7.11943C13.5892 6.53072 12.538 6.236 11.302 6.236C10.2398 6.236 9.27924 6.48267 8.4213 6.97589C7.56275 7.46935 6.88984 8.15403 6.40245 9.02957C5.91517 9.90559 5.67178 10.8957 5.67178 12C5.67178 13.0897 5.91517 14.0759 6.40245 14.9593C6.88984 15.8424 7.56275 16.531 8.4213 17.0242C9.27924 17.5174 10.2398 17.7639 11.302 17.7639C12.1161 17.7639 12.8842 17.6022 13.604 17.2779C14.3245 16.9543 14.9204 16.5348 15.3936 16.0192C15.8663 15.5042 16.1538 14.9739 16.2553 14.4291H20.2711C20.0817 15.6514 19.5795 16.7997 18.7654 17.8745C17.9499 18.9492 16.8845 19.8139 15.5683 20.4692C14.2512 21.1243 12.8 21.4521 11.2146 21.4521C9.41028 21.4521 7.78503 21.0433 6.33705 20.2262Z" fill="#8E8E8E"/>
<path d="M32.7099 17.5211H25.8141L24.5703 21.0103H20.4678L27.3635 3.01172H31.4879L38.3838 21.0103H33.9537L32.7099 17.5211ZM31.4879 14.0319L29.2617 7.75995L27.0361 14.0319H31.4879Z" fill="#8E8E8E"/>
<path d="M50.8878 21.0103L47.4397 15.3348H44.2753V21.0103H40.3037V3.01172H47.4615C48.9454 3.01172 50.2252 3.26579 51.302 3.77369C52.3789 4.28183 53.2008 4.99951 53.7685 5.92686C54.3355 6.85445 54.6193 7.93674 54.6193 9.17336C54.6193 10.41 54.3386 11.4888 53.7793 12.4086C53.2189 13.329 52.4155 14.0393 51.3676 14.5397L55.4919 21.0103H50.8878ZM44.2753 11.7792H47.2868C48.3489 11.7792 49.1747 11.555 49.7635 11.1056C50.353 10.6567 50.6477 10.0126 50.6477 9.17336C50.6477 8.3341 50.353 7.69019 49.7635 7.24114C49.1747 6.79208 48.3489 6.56725 47.2868 6.56725H44.2753V11.7792Z" fill="#8E8E8E"/>
<path d="M61.4276 3.01172V21.0103H57.4561V3.01172H61.4276Z" fill="#8E8E8E"/>
<path d="M64.7012 3.01172H68.0184L76.8996 13.833V2.79102H80.8718V20.7896H77.5546L68.6728 9.96845V21.0103H64.7012V3.01172Z" fill="#8E8E8E"/>
<path d="M97.0091 3.34307C98.2527 3.87293 99.2926 4.59461 100.13 5.50728C100.966 6.42031 101.559 7.44338 101.908 8.57712H97.5441C97.151 7.88504 96.5504 7.32193 95.7436 6.88744C94.9355 6.45343 94.0085 6.236 92.9614 6.236C91.8991 6.236 90.9384 6.48267 90.0805 6.97589C89.2219 7.46935 88.549 8.15403 88.0618 9.02957C87.5744 9.90559 87.331 10.8955 87.331 12C87.331 13.1044 87.5744 14.1019 88.0618 14.9925C88.549 15.8834 89.2219 16.5791 90.0805 17.0794C90.9384 17.5801 91.899 17.8303 92.9614 17.8303C93.8484 17.8303 94.6552 17.6685 95.3832 17.3441C96.1112 17.0205 96.7033 16.5901 97.1619 16.0523C97.6206 15.5153 97.9227 14.9447 98.0671 14.341H92.6338V10.9398H102.3V12C102.3 13.7965 101.89 15.4119 101.068 16.8474C100.246 18.283 99.119 19.4091 97.6861 20.2262C96.2532 21.0433 94.6492 21.4521 92.8741 21.4521C91.0693 21.4521 89.4442 21.0433 87.9961 20.2262C86.5487 19.4091 85.4141 18.2829 84.5922 16.8474C83.7703 15.412 83.3594 13.7965 83.3594 12C83.3594 10.2036 83.7703 8.58816 84.5922 7.15255C85.4141 5.71706 86.5487 4.59061 87.9961 3.77343C89.4441 2.95662 91.0693 2.54785 92.8741 2.54785C94.3871 2.54785 95.7654 2.81308 97.0091 3.34307Z" fill="#8E8E8E"/>
</svg>
