<svg width="32" height="32" viewBox="0 0 32 32" fill="none" xmlns="http://www.w3.org/2000/svg">
<rect width="32" height="32" rx="16" fill="#0859C4"/>
<g clip-path="url(#clip0_4077_6195)">
<path d="M14.3333 16.8335C14.6911 17.3119 15.1477 17.7078 15.672 17.9942C16.1964 18.2807 16.7762 18.4511 17.3721 18.4937C17.9681 18.5364 18.5662 18.4504 19.126 18.2416C19.6858 18.0328 20.1942 17.706 20.6166 17.2835L23.1166 14.7835C23.8756 13.9976 24.2956 12.9451 24.2861 11.8526C24.2766 10.7601 23.8384 9.71509 23.0658 8.94256C22.2933 8.17002 21.2482 7.73182 20.1558 7.72233C19.0633 7.71283 18.0108 8.13281 17.2249 8.8918L15.7916 10.3168" stroke="white" stroke-width="1.66667" stroke-linecap="round" stroke-linejoin="round"/>
<path d="M17.6668 15.167C17.309 14.6886 16.8524 14.2927 16.328 14.0062C15.8037 13.7198 15.2239 13.5494 14.628 13.5067C14.032 13.4641 13.4338 13.55 12.874 13.7589C12.3142 13.9677 11.8059 14.2945 11.3835 14.717L8.8835 17.217C8.12451 18.0029 7.70453 19.0554 7.71402 20.1479C7.72352 21.2403 8.16172 22.2854 8.93426 23.0579C9.70679 23.8305 10.7518 24.2687 11.8443 24.2782C12.9368 24.2877 13.9893 23.8677 14.7752 23.1087L16.2002 21.6837" stroke="white" stroke-width="1.66667" stroke-linecap="round" stroke-linejoin="round"/>
</g>
<defs>
<clipPath id="clip0_4077_6195">
<rect width="20" height="20" fill="white" transform="translate(6 6)"/>
</clipPath>
</defs>
</svg>
