<svg width="32" height="32" viewBox="0 0 32 32" fill="none" xmlns="http://www.w3.org/2000/svg">
<path d="M10.5557 7.11035V8.22168C10.5557 9.38745 11.5003 10.3329 12.666 10.333H19.333C20.4989 10.333 21.4443 9.38753 21.4443 8.22168V7.11035H22.666C23.2552 7.11037 23.8206 7.34416 24.2373 7.76074C24.6541 8.17749 24.8877 8.74364 24.8877 9.33301V24.8877C24.8877 25.4771 24.6541 26.0432 24.2373 26.46C23.8206 26.8766 23.2553 27.1103 22.666 27.1104H9.33301C8.74364 27.1104 8.17749 26.8767 7.76074 26.46C7.344 26.0432 7.11035 25.4771 7.11035 24.8877V9.33301C7.11035 8.74364 7.34399 8.17749 7.76074 7.76074C8.17749 7.34399 8.74364 7.11035 9.33301 7.11035H10.5557ZM12 20.5332C11.5583 20.5332 11.2004 20.8913 11.2002 21.333C11.2005 21.7746 11.5583 22.1338 12 22.1338H20C20.4414 22.1335 20.7995 21.7744 20.7998 21.333C20.7996 20.8915 20.4415 20.5335 20 20.5332H12ZM12 15.2002C11.5582 15.2002 11.2002 15.5582 11.2002 16C11.2005 16.4416 11.5583 16.7998 12 16.7998H20C20.4414 16.7995 20.7995 16.4414 20.7998 16C20.7998 15.5583 20.4416 15.2005 20 15.2002H12Z" fill="#064699"/>
<path d="M19 5H13C12.4477 5 12 5.44772 12 6V8C12 8.55228 12.4477 9 13 9H19C19.5523 9 20 8.55228 20 8V6C20 5.44772 19.5523 5 19 5Z" fill="#064699"/>
</svg>
