<svg width="32" height="32" viewBox="0 0 32 32" fill="none" xmlns="http://www.w3.org/2000/svg">
<path d="M20.4447 7.11133H22.6669C23.2563 7.11133 23.8215 7.34545 24.2383 7.7622C24.655 8.17895 24.8891 8.74418 24.8891 9.33355V24.8891C24.8891 25.4785 24.655 26.0437 24.2383 26.4605C23.8215 26.8772 23.2563 27.1114 22.6669 27.1114H9.33355C8.74418 27.1114 8.17895 26.8772 7.7622 26.4605C7.34545 26.0437 7.11133 25.4785 7.11133 24.8891V9.33355C7.11133 8.74418 7.34545 8.17895 7.7622 7.7622C8.17895 7.34545 8.74418 7.11133 9.33355 7.11133H11.5558" stroke="#C6C6C6" stroke-width="1.6" stroke-linecap="round" stroke-linejoin="round"/>
<path d="M19.3335 4.88965H12.6668C12.0531 4.88965 11.5557 5.38711 11.5557 6.00076V8.22299C11.5557 8.83664 12.0531 9.3341 12.6668 9.3341H19.3335C19.9471 9.3341 20.4446 8.83664 20.4446 8.22299V6.00076C20.4446 5.38711 19.9471 4.88965 19.3335 4.88965Z" stroke="#C6C6C6" stroke-width="1.6" stroke-linecap="round" stroke-linejoin="round"/>
<path d="M12 16H20M12 21.3333H20" stroke="#C6C6C6" stroke-width="1.6" stroke-linecap="round"/>
</svg>
