<svg width="32" height="32" viewBox="0 0 32 32" fill="none" xmlns="http://www.w3.org/2000/svg">
<path d="M10.4934 25.9252V21.3688H7.34675C6.92949 21.3688 6.52931 21.2031 6.23425 20.908C5.9392 20.613 5.77344 20.2128 5.77344 19.7955V8.7823C5.77344 8.36503 5.9392 7.96485 6.23425 7.6698C6.52931 7.37474 6.92949 7.20898 7.34675 7.20898H24.6532C25.0705 7.20898 25.4707 7.37474 25.7657 7.6698C26.0608 7.96485 26.2266 8.36503 26.2266 8.7823V19.7955C26.2266 20.2128 26.0608 20.613 25.7657 20.908C25.4707 21.2031 25.0705 21.3688 24.6532 21.3688H16L11.1652 26.2036C11.1102 26.2588 11.04 26.2964 10.9636 26.3116C10.8873 26.3268 10.8081 26.319 10.7361 26.2892C10.6641 26.2594 10.6027 26.2089 10.5595 26.1441C10.5162 26.0792 10.4932 26.0031 10.4934 25.9252Z" fill="#064699" stroke="#064699" stroke-width="1.6"/>
<path d="M10.4932 16.6492H18.7763M10.4932 11.9292H21.5064" stroke="white" stroke-width="1.6" stroke-linecap="round"/>
</svg>
