<svg width="32" height="32" viewBox="0 0 32 32" fill="none" xmlns="http://www.w3.org/2000/svg">
<path d="M14.1217 7.17334H11.1246C9.92569 7.17334 9.32626 7.17334 8.86812 7.40669C8.46531 7.61194 8.13782 7.93943 7.93257 8.34224C7.69922 8.80038 7.69922 9.39982 7.69922 10.5987V20.8747C7.69922 22.0736 7.69922 22.673 7.93257 23.1312C8.13782 23.534 8.46531 23.8615 8.86812 24.0667C9.32519 24.3001 9.92462 24.3001 11.1214 24.3001H21.4038C22.6005 24.3001 23.1989 24.3001 23.656 24.0667C24.0595 23.8612 24.3871 23.5337 24.5926 23.1312C24.826 22.673 24.826 22.0747 24.826 20.8779V17.8776" stroke="#C6C6C6" stroke-width="1.6" stroke-linecap="round" stroke-linejoin="round"/>
<path d="M20.5442 8.24398L14.1217 14.6665L13.6914 18.3082L17.333 17.8778L23.7555 11.4552M20.5442 8.24398L23.7555 5.03271L26.9667 8.24398L23.7555 11.4552M20.5442 8.24398L22.1498 9.84961L23.7555 11.4552" stroke="#C6C6C6" stroke-width="1.6" stroke-linecap="round" stroke-linejoin="round"/>
</svg>
