<svg width="33" height="32" viewBox="0 0 33 32" fill="none" xmlns="http://www.w3.org/2000/svg">
<path d="M11.5904 7.17334H14.5876H25.2918V17.8776V20.8779C25.2918 22.0747 25.2918 22.673 25.0584 23.1312C24.8529 23.5337 24.5254 23.8612 24.1218 24.0667C23.6647 24.3001 23.0664 24.3001 21.8697 24.3001H21.8696H11.5872H11.5871C10.3904 24.3001 9.791 24.3001 9.33394 24.0667C8.93113 23.8615 8.60364 23.534 8.39839 23.1312C8.16504 22.673 8.16504 22.0736 8.16504 20.8747V10.5987C8.16504 9.39982 8.16504 8.80038 8.39839 8.34224C8.60364 7.93943 8.93113 7.61194 9.33394 7.40669C9.79208 7.17334 10.3915 7.17334 11.5904 7.17334Z" fill="#064699" stroke="#064699" stroke-width="1.6" stroke-linecap="round" stroke-linejoin="round"/>
<path d="M14.5875 14.6665L21.01 8.24398L24.2213 5.03271L27.4326 8.24398L24.2213 11.4552L17.7988 17.8778L14.1572 18.3082L14.5875 14.6665Z" fill="white"/>
<path d="M21.01 8.24398L14.5875 14.6665L14.1572 18.3082L17.7988 17.8778L24.2213 11.4552M21.01 8.24398L24.2213 5.03271L27.4326 8.24398L24.2213 11.4552M21.01 8.24398L22.6157 9.84961L24.2213 11.4552" stroke="#064699" stroke-width="1.6" stroke-linecap="round" stroke-linejoin="round"/>
</svg>
