<svg width="24" height="24" viewBox="0 0 24 24" fill="none" xmlns="http://www.w3.org/2000/svg">
<rect x="6" y="7" width="12" height="14" fill="#8E8E8E"/>
<path d="M3.90332 6.60205H5.70258H20.0967" stroke="#8E8E8E" stroke-width="1.6" stroke-linecap="round" stroke-linejoin="round"/>
<path d="M18.297 6.60243V19.1973C18.297 19.6745 18.1074 20.1321 17.77 20.4695C17.4326 20.807 16.9749 20.9965 16.4977 20.9965H7.50141C7.02422 20.9965 6.56657 20.807 6.22914 20.4695C5.89171 20.1321 5.70215 19.6745 5.70215 19.1973V6.60243M8.40104 6.60243V4.80317C8.40104 4.32597 8.59061 3.86833 8.92803 3.5309C9.26546 3.19347 9.72311 3.00391 10.2003 3.00391H13.7988C14.276 3.00391 14.7337 3.19347 15.0711 3.5309C15.4085 3.86833 15.5981 4.32597 15.5981 4.80317V6.60243" stroke="#8E8E8E" stroke-width="1.6" stroke-linecap="round" stroke-linejoin="round"/>
<path d="M10.2012 11.1006V16.4984" stroke="white" stroke-width="1.6" stroke-linecap="round" stroke-linejoin="round"/>
<path d="M13.7988 11.1006V16.4984" stroke="white" stroke-width="1.6" stroke-linecap="round" stroke-linejoin="round"/>
</svg>
