<svg width="24" height="24" viewBox="0 0 24 24" fill="none" xmlns="http://www.w3.org/2000/svg">
<path d="M3.90332 6.60205H5.70258H20.0967" stroke="white" stroke-width="1.6" stroke-linecap="round" stroke-linejoin="round"/>
<path d="M18.297 6.60243V19.1973C18.297 19.6745 18.1074 20.1321 17.77 20.4695C17.4326 20.807 16.9749 20.9965 16.4977 20.9965H7.50141C7.02422 20.9965 6.56657 20.807 6.22914 20.4695C5.89171 20.1321 5.70215 19.6745 5.70215 19.1973V6.60243M8.40104 6.60243V4.80317C8.40104 4.32597 8.59061 3.86833 8.92803 3.5309C9.26546 3.19347 9.72311 3.00391 10.2003 3.00391H13.7988C14.276 3.00391 14.7337 3.19347 15.0711 3.5309C15.4085 3.86833 15.5981 4.32597 15.5981 4.80317V6.60243" stroke="white" stroke-width="1.6" stroke-linecap="round" stroke-linejoin="round"/>
<path d="M18 21H6V7H18V21ZM10.2012 10.3008C9.75934 10.3008 9.40137 10.6588 9.40137 11.1006V16.498C9.40137 16.9399 9.75934 17.2988 10.2012 17.2988C10.643 17.2988 11.001 16.9399 11.001 16.498V11.1006C11.001 10.6588 10.643 10.3008 10.2012 10.3008ZM13.7988 10.3008C13.357 10.3008 12.999 10.6588 12.999 11.1006V16.498C12.999 16.9399 13.357 17.2988 13.7988 17.2988C14.2407 17.2988 14.5986 16.9399 14.5986 16.498V11.1006C14.5986 10.6588 14.2407 10.3008 13.7988 10.3008Z" fill="white"/>
</svg>
