<svg width="32" height="32" viewBox="0 0 32 32" fill="none" xmlns="http://www.w3.org/2000/svg">
<rect width="32" height="32" rx="16" fill="#E4E4E4"/>
<path d="M15.9998 9.08643C16.9166 9.08643 17.7958 9.45062 18.4441 10.0989C19.0924 10.7472 19.4565 11.6264 19.4565 12.5432C19.4565 13.46 19.0924 14.3393 18.4441 14.9875C17.7958 15.6358 16.9166 16 15.9998 16C15.083 16 14.2037 15.6358 13.5554 14.9875C12.9072 14.3393 12.543 13.46 12.543 12.5432C12.543 11.6264 12.9072 10.7472 13.5554 10.0989C14.2037 9.45062 15.083 9.08643 15.9998 9.08643ZM15.9998 17.7284C19.8195 17.7284 22.9133 19.2753 22.9133 21.1852V22.2469C22.9133 22.6151 22.6149 22.9136 22.2467 22.9136H9.75285C9.38466 22.9136 9.08618 22.6151 9.08618 22.2469V21.1852C9.08618 19.2753 12.18 17.7284 15.9998 17.7284Z" stroke="#2D2D2D" stroke-width="1.33333"/>
</svg>
